<svg width="137" height="35" viewBox="0 0 137 35" fill="none" xmlns="http://www.w3.org/2000/svg">
<mask id="path-1-outside-1_71_105" maskUnits="userSpaceOnUse" x="-4" y="-4" width="145" height="43" fill="black">
<rect fill="white" x="-4" y="-4" width="145" height="43"/>
<path d="M0.0757813 35V-2.38419e-06H14.3258C15.9591 0.599998 17.4091 1.65 18.6758 3.15C19.9424 4.65 20.5758 6.46667 20.5758 8.6C20.5758 12.3667 19.3424 15 16.8758 16.5V16.7C19.9424 18.4 21.4758 21.0667 21.4758 24.7C21.4758 28.8667 19.3591 32.3 15.1258 35H0.0757813ZM6.87578 14.45H11.8258C13.2924 13.55 14.0258 12.1833 14.0258 10.35C14.0258 8.51666 13.3424 7.06666 11.9758 6H6.87578V14.45ZM6.87578 29.2H12.0258C12.6258 28.7667 13.1591 28.0833 13.6258 27.15C14.1258 26.2167 14.3758 25.2833 14.3758 24.35C14.3758 23.4167 14.1758 22.5667 13.7758 21.8C13.3758 21.0333 12.8758 20.4667 12.2758 20.1H6.87578V29.2ZM25.1246 35V-2.38419e-06H31.9746V29.2H42.3746V35H25.1246ZM60.5652 -2.38419e-06C62.8986 1.9 64.6319 4.45 65.7652 7.65C66.8986 10.85 67.4652 14.15 67.4652 17.55C67.4652 20.9167 66.9152 24.1167 65.8152 27.15C64.7152 30.1833 62.9652 32.8 60.5652 35H50.2652C47.8652 32.8 46.1152 30.1833 45.0152 27.15C43.9152 24.1167 43.3652 20.9167 43.3652 17.55C43.3652 14.15 43.9319 10.85 45.0652 7.65C46.1986 4.45 47.9319 1.9 50.2652 -2.38419e-06H60.5652ZM53.6152 29.2H57.2152C58.0486 28.2333 58.7486 26.6667 59.3152 24.5C59.9152 22.3 60.2152 19.9833 60.2152 17.55C60.2152 15.1167 59.9319 12.8333 59.3652 10.7C58.7986 8.53333 58.0986 6.96667 57.2652 6H53.6152C52.7819 6.96667 52.0652 8.53333 51.4652 10.7C50.8986 12.8333 50.6152 15.1167 50.6152 17.55C50.6152 19.9833 50.8986 22.3 51.4652 24.5C52.0652 26.6667 52.7819 28.2333 53.6152 29.2ZM71.3648 35V-2.38419e-06H78.2148V14.75H78.4648L84.7148 -2.38419e-06H91.7648L84.4648 16.7L92.1148 35H84.5148L78.5648 19.7H78.2148V35H71.3648ZM103.159 29.2H107.359C108.093 28.4 108.609 27.6 108.909 26.8C109.243 25.9667 109.409 24.75 109.409 23.15V-2.38419e-06H116.259V20.65C116.259 22.35 116.209 23.6833 116.109 24.65C116.043 25.5833 115.843 26.7333 115.509 28.1C114.943 30.5333 113.376 32.8333 110.809 35H99.7094C97.1427 32.9 95.576 30.6 95.0094 28.1C94.5094 26.0667 94.2594 23.5833 94.2594 20.65V-2.38419e-06H101.109V23.15C101.109 24.75 101.259 25.9667 101.559 26.8C101.893 27.6 102.426 28.4 103.159 29.2ZM123.539 -2.38419e-06H135.539V6H125.939L125.789 6.3L133.789 20.9C135.423 23.8333 136.239 26.0667 136.239 27.6C136.239 30.9667 135.123 33.4333 132.889 35H119.639V29.2H129.989L130.139 28.9L121.139 12.75C119.839 10.4167 119.189 8.51666 119.189 7.05C119.189 3.58333 120.639 1.23333 123.539 -2.38419e-06Z"/>
</mask>
<path d="M0.0757813 35V-2.38419e-06H14.3258C15.9591 0.599998 17.4091 1.65 18.6758 3.15C19.9424 4.65 20.5758 6.46667 20.5758 8.6C20.5758 12.3667 19.3424 15 16.8758 16.5V16.7C19.9424 18.4 21.4758 21.0667 21.4758 24.7C21.4758 28.8667 19.3591 32.3 15.1258 35H0.0757813ZM6.87578 14.45H11.8258C13.2924 13.55 14.0258 12.1833 14.0258 10.35C14.0258 8.51666 13.3424 7.06666 11.9758 6H6.87578V14.45ZM6.87578 29.2H12.0258C12.6258 28.7667 13.1591 28.0833 13.6258 27.15C14.1258 26.2167 14.3758 25.2833 14.3758 24.35C14.3758 23.4167 14.1758 22.5667 13.7758 21.8C13.3758 21.0333 12.8758 20.4667 12.2758 20.1H6.87578V29.2ZM25.1246 35V-2.38419e-06H31.9746V29.2H42.3746V35H25.1246ZM60.5652 -2.38419e-06C62.8986 1.9 64.6319 4.45 65.7652 7.65C66.8986 10.85 67.4652 14.15 67.4652 17.55C67.4652 20.9167 66.9152 24.1167 65.8152 27.15C64.7152 30.1833 62.9652 32.8 60.5652 35H50.2652C47.8652 32.8 46.1152 30.1833 45.0152 27.15C43.9152 24.1167 43.3652 20.9167 43.3652 17.55C43.3652 14.15 43.9319 10.85 45.0652 7.65C46.1986 4.45 47.9319 1.9 50.2652 -2.38419e-06H60.5652ZM53.6152 29.2H57.2152C58.0486 28.2333 58.7486 26.6667 59.3152 24.5C59.9152 22.3 60.2152 19.9833 60.2152 17.55C60.2152 15.1167 59.9319 12.8333 59.3652 10.7C58.7986 8.53333 58.0986 6.96667 57.2652 6H53.6152C52.7819 6.96667 52.0652 8.53333 51.4652 10.7C50.8986 12.8333 50.6152 15.1167 50.6152 17.55C50.6152 19.9833 50.8986 22.3 51.4652 24.5C52.0652 26.6667 52.7819 28.2333 53.6152 29.2ZM71.3648 35V-2.38419e-06H78.2148V14.75H78.4648L84.7148 -2.38419e-06H91.7648L84.4648 16.7L92.1148 35H84.5148L78.5648 19.7H78.2148V35H71.3648ZM103.159 29.2H107.359C108.093 28.4 108.609 27.6 108.909 26.8C109.243 25.9667 109.409 24.75 109.409 23.15V-2.38419e-06H116.259V20.65C116.259 22.35 116.209 23.6833 116.109 24.65C116.043 25.5833 115.843 26.7333 115.509 28.1C114.943 30.5333 113.376 32.8333 110.809 35H99.7094C97.1427 32.9 95.576 30.6 95.0094 28.1C94.5094 26.0667 94.2594 23.5833 94.2594 20.65V-2.38419e-06H101.109V23.15C101.109 24.75 101.259 25.9667 101.559 26.8C101.893 27.6 102.426 28.4 103.159 29.2ZM123.539 -2.38419e-06H135.539V6H125.939L125.789 6.3L133.789 20.9C135.423 23.8333 136.239 26.0667 136.239 27.6C136.239 30.9667 135.123 33.4333 132.889 35H119.639V29.2H129.989L130.139 28.9L121.139 12.75C119.839 10.4167 119.189 8.51666 119.189 7.05C119.189 3.58333 120.639 1.23333 123.539 -2.38419e-06Z" fill="#D2D0D0"/>
<path d="M0.0757813 35H-3.92422V39H0.0757813V35ZM0.0757813 -2.38419e-06V-4H-3.92422V-2.38419e-06H0.0757813ZM14.3258 -2.38419e-06L15.7051 -3.75468L15.0372 -4H14.3258V-2.38419e-06ZM18.6758 3.15L15.6197 5.73072L15.6197 5.73072L18.6758 3.15ZM16.8758 16.5L14.7975 13.0823L12.8758 14.2509V16.5H16.8758ZM16.8758 16.7H12.8758V19.0561L14.9364 20.1984L16.8758 16.7ZM15.1258 35V39H16.2928L17.2767 38.3725L15.1258 35ZM6.87578 14.45H2.87578V18.45H6.87578V14.45ZM11.8258 14.45V18.45H12.9552L13.9178 17.8593L11.8258 14.45ZM11.9758 6L14.4369 2.84673L13.352 2H11.9758V6ZM6.87578 6V2H2.87578V6H6.87578ZM6.87578 29.2H2.87578V33.2H6.87578V29.2ZM12.0258 29.2V33.2H13.3192L14.3677 32.4427L12.0258 29.2ZM13.6258 27.15L10.0999 25.2611L10.0733 25.3108L10.0481 25.3611L13.6258 27.15ZM13.7758 21.8L17.3221 19.9497L17.3221 19.9497L13.7758 21.8ZM12.2758 20.1L14.3616 16.6869L13.4012 16.1H12.2758V20.1ZM6.87578 20.1V16.1H2.87578V20.1H6.87578ZM4.07578 35V-2.38419e-06H-3.92422V35H4.07578ZM0.0757813 4H14.3258V-4H0.0757813V4ZM12.9465 3.75468C13.8484 4.08599 14.7422 4.69159 15.6197 5.73072L21.7319 0.569277C20.0761 -1.39159 18.0698 -2.88599 15.7051 -3.75468L12.9465 3.75468ZM15.6197 5.73072C16.2224 6.44443 16.5758 7.32338 16.5758 8.6H24.5758C24.5758 5.60995 23.6625 2.85556 21.7319 0.569275L15.6197 5.73072ZM16.5758 8.6C16.5758 11.4536 15.7089 12.5281 14.7975 13.0823L18.9541 19.9177C22.976 17.4719 24.5758 13.2797 24.5758 8.6H16.5758ZM12.8758 16.5V16.7H20.8758V16.5H12.8758ZM14.9364 20.1984C15.9238 20.7458 16.503 21.3512 16.8582 21.9689C17.2175 22.5939 17.4758 23.4556 17.4758 24.7H25.4758C25.4758 22.311 24.9674 20.0228 23.7934 17.9811C22.6152 15.9321 20.8944 14.3542 18.8151 13.2016L14.9364 20.1984ZM17.4758 24.7C17.4758 27.2052 16.3296 29.4879 12.9748 31.6275L17.2767 38.3725C22.3886 35.1121 25.4758 30.5281 25.4758 24.7H17.4758ZM15.1258 31H0.0757813V39H15.1258V31ZM6.87578 18.45H11.8258V10.45H6.87578V18.45ZM13.9178 17.8593C16.6608 16.1761 18.0258 13.4642 18.0258 10.35H10.0258C10.0258 10.7268 9.95352 10.8543 9.95114 10.8587C9.94656 10.8673 9.93917 10.8797 9.91796 10.9016C9.89508 10.9252 9.84117 10.9748 9.73372 11.0407L13.9178 17.8593ZM18.0258 10.35C18.0258 7.36673 16.8376 4.72051 14.4369 2.84673L9.5147 9.15326C9.84726 9.41282 10.0258 9.6666 10.0258 10.35H18.0258ZM11.9758 2H6.87578V10H11.9758V2ZM2.87578 6V14.45H10.8758V6H2.87578ZM6.87578 33.2H12.0258V25.2H6.87578V33.2ZM14.3677 32.4427C15.6609 31.5087 16.5594 30.227 17.2035 28.9389L10.0481 25.3611C9.91038 25.6365 9.79668 25.8064 9.72252 25.9014C9.64942 25.9951 9.63082 25.9956 9.68382 25.9573L14.3677 32.4427ZM17.1517 29.0389C17.9206 27.6036 18.3758 26.0266 18.3758 24.35H10.3758C10.3758 24.5401 10.331 24.8297 10.0999 25.2611L17.1517 29.0389ZM18.3758 24.35C18.3758 22.8247 18.0435 21.3323 17.3221 19.9497L10.2294 23.6503C10.3081 23.801 10.3758 24.0086 10.3758 24.35H18.3758ZM17.3221 19.9497C16.6631 18.6867 15.7093 17.5105 14.3616 16.6869L10.19 23.5131C10.1243 23.473 10.0962 23.4406 10.1014 23.4465C10.1095 23.4556 10.1579 23.5132 10.2294 23.6503L17.3221 19.9497ZM12.2758 16.1H6.87578V24.1H12.2758V16.1ZM2.87578 20.1V29.2H10.8758V20.1H2.87578ZM25.1246 35H21.1246V39H25.1246V35ZM25.1246 -2.38419e-06V-4H21.1246V-2.38419e-06H25.1246ZM31.9746 -2.38419e-06H35.9746V-4H31.9746V-2.38419e-06ZM31.9746 29.2H27.9746V33.2H31.9746V29.2ZM42.3746 29.2H46.3746V25.2H42.3746V29.2ZM42.3746 35V39H46.3746V35H42.3746ZM29.1246 35V-2.38419e-06H21.1246V35H29.1246ZM25.1246 4H31.9746V-4H25.1246V4ZM27.9746 -2.38419e-06V29.2H35.9746V-2.38419e-06H27.9746ZM31.9746 33.2H42.3746V25.2H31.9746V33.2ZM38.3746 29.2V35H46.3746V29.2H38.3746ZM42.3746 31H25.1246V39H42.3746V31ZM60.5652 -2.38419e-06L63.0909 -3.10175L61.9878 -4H60.5652V-2.38419e-06ZM65.7652 7.65L61.9947 8.98539L61.9947 8.98539L65.7652 7.65ZM65.8152 27.15L69.5756 28.5137L69.5756 28.5137L65.8152 27.15ZM60.5652 35V39H62.1212L63.2681 37.9486L60.5652 35ZM50.2652 35L47.5623 37.9486L48.7093 39H50.2652V35ZM45.0652 7.65L41.2947 6.31461L41.2947 6.31461L45.0652 7.65ZM50.2652 -2.38419e-06V-4H48.8427L47.7395 -3.10175L50.2652 -2.38419e-06ZM53.6152 29.2L50.5856 31.8118L51.7824 33.2H53.6152V29.2ZM57.2152 29.2V33.2H59.0481L60.2449 31.8118L57.2152 29.2ZM59.3152 24.5L55.4562 23.4475L55.4507 23.4677L55.4454 23.4879L59.3152 24.5ZM59.3652 10.7L55.4954 11.7121L55.4973 11.7195L55.4993 11.7269L59.3652 10.7ZM57.2652 6L60.2949 3.38824L59.0981 2H57.2652V6ZM53.6152 6V2H51.7824L50.5856 3.38824L53.6152 6ZM51.4652 10.7L47.6103 9.63248L47.6047 9.65277L47.5993 9.67311L51.4652 10.7ZM51.4652 24.5L47.5917 25.4977L47.6007 25.5327L47.6103 25.5675L51.4652 24.5ZM58.0395 3.10174C59.7334 4.481 61.0742 6.38635 61.9947 8.98539L69.5357 6.31461C68.1896 2.51364 66.0638 -0.681 63.0909 -3.10175L58.0395 3.10174ZM61.9947 8.98539C62.9759 11.7559 63.4652 14.6042 63.4652 17.55H71.4652C71.4652 13.6958 70.8212 9.94412 69.5357 6.31461L61.9947 8.98539ZM63.4652 17.55C63.4652 20.4721 62.9895 23.209 62.0549 25.7863L69.5756 28.5137C70.841 25.0244 71.4652 21.3613 71.4652 17.55H63.4652ZM62.0549 25.7863C61.1766 28.2082 59.7918 30.2827 57.8623 32.0514L63.2681 37.9486C66.1387 35.3173 68.2539 32.1585 69.5756 28.5137L62.0549 25.7863ZM60.5652 31H50.2652V39H60.5652V31ZM52.9681 32.0514C51.0387 30.2827 49.6539 28.2082 48.7756 25.7863L41.2549 28.5137C42.5766 32.1585 44.6918 35.3173 47.5623 37.9486L52.9681 32.0514ZM48.7756 25.7863C47.841 23.209 47.3652 20.4721 47.3652 17.55H39.3652C39.3652 21.3613 39.9895 25.0244 41.2549 28.5137L48.7756 25.7863ZM47.3652 17.55C47.3652 14.6042 47.8545 11.7559 48.8357 8.98539L41.2947 6.31461C40.0093 9.94412 39.3652 13.6958 39.3652 17.55H47.3652ZM48.8357 8.98539C49.7562 6.38635 51.0971 4.481 52.7909 3.10174L47.7395 -3.10175C44.7667 -0.681 42.6409 2.51364 41.2947 6.31461L48.8357 8.98539ZM50.2652 4H60.5652V-4H50.2652V4ZM53.6152 33.2H57.2152V25.2H53.6152V33.2ZM60.2449 31.8118C61.6722 30.156 62.5639 27.8874 63.1851 25.5121L55.4454 23.4879C54.9333 25.446 54.4249 26.3106 54.1856 26.5882L60.2449 31.8118ZM63.1743 25.5525C63.8739 22.9873 64.2152 20.3151 64.2152 17.55H56.2152C56.2152 19.6516 55.9566 21.6127 55.4562 23.4475L63.1743 25.5525ZM64.2152 17.55C64.2152 14.805 63.8954 12.1737 63.2312 9.67311L55.4993 11.7269C55.9684 13.4929 56.2152 15.4283 56.2152 17.55H64.2152ZM63.2351 9.68789C62.6138 7.31263 61.7222 5.04396 60.2949 3.38824L54.2356 8.61175C54.4749 8.88937 54.9833 9.75403 55.4954 11.7121L63.2351 9.68789ZM57.2652 2H53.6152V10H57.2652V2ZM50.5856 3.38824C49.1765 5.02277 48.2655 7.26644 47.6103 9.63248L55.3202 11.7675C55.8649 9.80022 56.3873 8.91056 56.6449 8.61175L50.5856 3.38824ZM47.5993 9.67311C46.9351 12.1737 46.6152 14.805 46.6152 17.55H54.6152C54.6152 15.4283 54.8621 13.4929 55.3312 11.7269L47.5993 9.67311ZM46.6152 17.55C46.6152 20.2961 46.9353 22.9495 47.5917 25.4977L55.3388 23.5023C54.8618 21.6505 54.6152 19.6705 54.6152 17.55H46.6152ZM47.6103 25.5675C48.2655 27.9336 49.1765 30.1772 50.5856 31.8118L56.6449 26.5882C56.3873 26.2894 55.8649 25.3998 55.3202 23.4325L47.6103 25.5675ZM71.3648 35H67.3648V39H71.3648V35ZM71.3648 -2.38419e-06V-4H67.3648V-2.38419e-06H71.3648ZM78.2148 -2.38419e-06H82.2148V-4H78.2148V-2.38419e-06ZM78.2148 14.75H74.2148V18.75H78.2148V14.75ZM78.4648 14.75V18.75H81.1142L82.1479 16.3106L78.4648 14.75ZM84.7148 -2.38419e-06V-4H82.0655L81.0318 -1.5606L84.7148 -2.38419e-06ZM91.7648 -2.38419e-06L95.43 1.60212L97.8788 -4H91.7648V-2.38419e-06ZM84.4648 16.7L80.7997 15.0979L80.1147 16.6649L80.7743 18.2428L84.4648 16.7ZM92.1148 35V39H98.1224L95.8054 33.4572L92.1148 35ZM84.5148 35L80.7868 36.4498L81.7786 39H84.5148V35ZM78.5648 19.7L82.2929 18.2502L81.3011 15.7H78.5648V19.7ZM78.2148 19.7V15.7H74.2148V19.7H78.2148ZM78.2148 35V39H82.2148V35H78.2148ZM75.3648 35V-2.38419e-06H67.3648V35H75.3648ZM71.3648 4H78.2148V-4H71.3648V4ZM74.2148 -2.38419e-06V14.75H82.2148V-2.38419e-06H74.2148ZM78.2148 18.75H78.4648V10.75H78.2148V18.75ZM82.1479 16.3106L88.3979 1.56059L81.0318 -1.5606L74.7818 13.1894L82.1479 16.3106ZM84.7148 4H91.7648V-4H84.7148V4ZM88.0997 -1.60213L80.7997 15.0979L88.13 18.3021L95.43 1.60212L88.0997 -1.60213ZM80.7743 18.2428L88.4243 36.5428L95.8054 33.4572L88.1554 15.1572L80.7743 18.2428ZM92.1148 31H84.5148V39H92.1148V31ZM88.2429 33.5502L82.2929 18.2502L74.8368 21.1498L80.7868 36.4498L88.2429 33.5502ZM78.5648 15.7H78.2148V23.7H78.5648V15.7ZM74.2148 19.7V35H82.2148V19.7H74.2148ZM78.2148 31H71.3648V39H78.2148V31ZM103.159 29.2L100.211 31.9029L101.4 33.2H103.159V29.2ZM107.359 29.2V33.2H109.119L110.308 31.9029L107.359 29.2ZM108.909 26.8L105.195 25.3144L105.179 25.3548L105.164 25.3955L108.909 26.8ZM109.409 -2.38419e-06V-4H105.409V-2.38419e-06H109.409ZM116.259 -2.38419e-06H120.259V-4H116.259V-2.38419e-06ZM116.109 24.65L112.131 24.2384L112.124 24.3016L112.12 24.365L116.109 24.65ZM115.509 28.1L111.623 27.1522L111.618 27.1724L111.614 27.1928L115.509 28.1ZM110.809 35V39H112.272L113.39 38.0566L110.809 35ZM99.7094 35L97.1764 38.0958L98.2815 39H99.7094V35ZM95.0094 28.1L98.9104 27.2158L98.9024 27.1802L98.8937 27.1448L95.0094 28.1ZM94.2594 -2.38419e-06V-4H90.2594V-2.38419e-06H94.2594ZM101.109 -2.38419e-06H105.109V-4H101.109V-2.38419e-06ZM101.559 26.8L97.7958 28.1549L97.8292 28.2475L97.8671 28.3385L101.559 26.8ZM103.159 33.2H107.359V25.2H103.159V33.2ZM110.308 31.9029C111.298 30.8231 112.133 29.5948 112.655 28.2045L105.164 25.3955C105.085 25.6052 104.888 25.9769 104.411 26.4971L110.308 31.9029ZM112.623 28.2856C113.239 26.7453 113.409 24.9238 113.409 23.15H105.409C105.409 24.5762 105.246 25.188 105.195 25.3144L112.623 28.2856ZM113.409 23.15V-2.38419e-06H105.409V23.15H113.409ZM109.409 4H116.259V-4H109.409V4ZM112.259 -2.38419e-06V20.65H120.259V-2.38419e-06H112.259ZM112.259 20.65C112.259 22.2978 112.21 23.473 112.131 24.2384L120.088 25.0616C120.209 23.8937 120.259 22.4022 120.259 20.65H112.259ZM112.12 24.365C112.075 24.9936 111.927 25.9063 111.623 27.1522L119.395 29.0478C119.758 27.5603 120.011 26.173 120.099 24.935L112.12 24.365ZM111.614 27.1928C111.3 28.5397 110.362 30.1433 108.229 31.9434L113.39 38.0566C116.39 35.5234 118.585 32.527 119.405 29.0072L111.614 27.1928ZM110.809 31H99.7094V39H110.809V31ZM102.242 31.9042C100.161 30.2013 99.2288 28.6204 98.9104 27.2158L91.1083 28.9842C91.9233 32.5796 94.1243 35.5987 97.1764 38.0958L102.242 31.9042ZM98.8937 27.1448C98.4943 25.5208 98.2594 23.3792 98.2594 20.65H90.2594C90.2594 23.7875 90.5244 26.6125 91.1251 29.0552L98.8937 27.1448ZM98.2594 20.65V-2.38419e-06H90.2594V20.65H98.2594ZM94.2594 4H101.109V-4H94.2594V4ZM97.1094 -2.38419e-06V23.15H105.109V-2.38419e-06H97.1094ZM97.1094 23.15C97.1094 24.9018 97.2607 26.6685 97.7958 28.1549L105.323 25.4451C105.258 25.2649 105.109 24.5982 105.109 23.15H97.1094ZM97.8671 28.3385C98.4175 29.6594 99.2397 30.8436 100.211 31.9029L106.108 26.4971C105.612 25.9564 105.368 25.5406 105.252 25.2615L97.8671 28.3385ZM123.539 -2.38419e-06V-4H122.724L121.974 -3.68095L123.539 -2.38419e-06ZM135.539 -2.38419e-06H139.539V-4H135.539V-2.38419e-06ZM135.539 6V10H139.539V6H135.539ZM125.939 6V2H123.467L122.362 4.21115L125.939 6ZM125.789 6.3L122.212 4.51115L121.275 6.38493L122.282 8.22214L125.789 6.3ZM133.789 20.9L130.282 22.8221L130.288 22.8341L130.295 22.8459L133.789 20.9ZM132.889 35V39H134.153L135.187 38.2746L132.889 35ZM119.639 35H115.639V39H119.639V35ZM119.639 29.2V25.2H115.639V29.2H119.639ZM129.989 29.2V33.2H132.462L133.567 30.9889L129.989 29.2ZM130.139 28.9L133.717 30.6889L134.662 28.7988L133.634 26.9528L130.139 28.9ZM121.139 12.75L117.645 14.6968L117.645 14.6972L121.139 12.75ZM123.539 4H135.539V-4H123.539V4ZM131.539 -2.38419e-06V6H139.539V-2.38419e-06H131.539ZM135.539 2H125.939V10H135.539V2ZM122.362 4.21115L122.212 4.51115L129.367 8.08885L129.517 7.78885L122.362 4.21115ZM122.282 8.22214L130.282 22.8221L137.297 18.9779L129.297 4.37786L122.282 8.22214ZM130.295 22.8459C131.903 25.7346 132.239 27.18 132.239 27.6H140.239C140.239 24.9533 138.942 21.9321 137.284 18.9541L130.295 22.8459ZM132.239 27.6C132.239 30.007 131.505 31.0855 130.592 31.7254L135.187 38.2746C138.741 35.7812 140.239 31.9263 140.239 27.6H132.239ZM132.889 31H119.639V39H132.889V31ZM123.639 35V29.2H115.639V35H123.639ZM119.639 33.2H129.989V25.2H119.639V33.2ZM133.567 30.9889L133.717 30.6889L126.562 27.1111L126.412 27.4111L133.567 30.9889ZM133.634 26.9528L124.634 10.8028L117.645 14.6972L126.645 30.8472L133.634 26.9528ZM124.634 10.8032C123.434 8.64944 123.189 7.48016 123.189 7.05H115.189C115.189 9.55317 116.245 12.1839 117.645 14.6968L124.634 10.8032ZM123.189 7.05C123.189 5.87042 123.434 5.18866 123.681 4.78793C123.912 4.41391 124.305 4.02114 125.105 3.68094L121.974 -3.68095C119.874 -2.78781 118.092 -1.38891 116.873 0.587069C115.67 2.53633 115.189 4.76291 115.189 7.05H123.189Z" fill="black" mask="url(#path-1-outside-1_71_105)"/>
</svg>
