<svg width="24" height="19" viewBox="0 0 24 19" fill="none" xmlns="http://www.w3.org/2000/svg">
<path d="M24 3.71044C24 4.13692 23.8555 4.49944 23.5665 4.79798L12.3561 16.3771L10.2503 18.5522C9.96129 18.8507 9.61032 19 9.19742 19C8.78452 19 8.43355 18.8507 8.14452 18.5522L6.03871 16.3771L0.433548 10.5875C0.144516 10.289 0 9.92649 0 9.5C0 9.07351 0.144516 8.711 0.433548 8.41246L2.53935 6.23737C2.82839 5.93883 3.17935 5.78956 3.59226 5.78956C4.00516 5.78956 4.35613 5.93883 4.64516 6.23737L9.19742 10.9554L19.3548 0.447811C19.6439 0.14927 19.9948 0 20.4077 0C20.8206 0 21.1716 0.14927 21.4606 0.447811L23.5665 2.6229C23.8555 2.92144 24 3.28395 24 3.71044Z" fill="#008000"/>
</svg>
