<svg width="25" height="35" viewBox="0 0 25 35" fill="none" xmlns="http://www.w3.org/2000/svg">
<path d="M15.9498 23.9947H9.11419C9.11419 17.4507 12.7599 15.2694 15.2663 13.9605C16.1777 13.5243 16.8612 13.088 17.317 12.6517C18.4562 11.5611 18.0005 10.0341 17.7727 9.59788C17.0891 8.07094 15.4941 6.54401 12.532 6.54401C7.74706 6.54401 6.83564 10.6885 6.83564 11.5611L0 10.6885C0.455709 6.98027 3.87353 0 12.532 0C17.7727 0 22.3298 2.83574 24.1526 6.98027C25.7476 10.6885 25.064 14.6149 22.3298 17.2326C21.1905 18.3232 19.8234 18.9776 18.6841 19.632C16.6334 20.7227 15.9498 21.8134 15.9498 23.9947ZM17.0891 30.5387C17.1028 31.1197 16.9952 31.6974 16.7725 32.238C16.5497 32.7786 16.2164 33.2712 15.7921 33.6867C15.3679 34.1023 14.8611 34.4326 14.3017 34.6581C13.7422 34.8836 13.1413 34.9999 12.5343 35C11.9273 35.0001 11.3264 34.8842 10.7668 34.6589C10.2072 34.4337 9.70031 34.1037 9.27579 33.6883C8.85128 33.2729 8.51774 32.7805 8.29473 32.24C8.07173 31.6996 7.96377 31.1219 7.97719 30.5409C8.00352 29.401 8.49494 28.3163 9.34623 27.5189C10.1975 26.7216 11.3411 26.2749 12.532 26.2747C13.723 26.2744 14.8668 26.7204 15.7185 27.5174C16.5702 28.3143 17.0622 29.3988 17.0891 30.5387Z" fill="#D3D3D3"/>
</svg>
